<svg width="24" height="25" viewBox="0 0 24 25" fill="none" xmlns="http://www.w3.org/2000/svg">
<path d="M7.5 8.55103C8.29565 8.55103 9.05871 8.23495 9.62132 7.67235C10.1839 7.10974 10.5 6.34667 10.5 5.55103C10.5 4.75538 10.1839 3.99231 9.62132 3.42971C9.05871 2.8671 8.29565 2.55103 7.5 2.55103C6.70435 2.55103 5.94129 2.8671 5.37868 3.42971C4.81607 3.99231 4.5 4.75538 4.5 5.55103C4.5 6.34667 4.81607 7.10974 5.37868 7.67235C5.94129 8.23495 6.70435 8.55103 7.5 8.55103ZM2 11.319C2 10.341 2.791 9.55103 3.768 9.55103H8.535C8.1834 10.1588 7.99883 10.8488 8 11.551C7.99933 12.1186 8.11976 12.6798 8.35325 13.1971C8.58674 13.7145 8.92792 14.176 9.354 14.551H8.268C7.7044 14.551 7.15421 14.723 6.6909 15.0439C6.22758 15.3648 5.87318 15.8194 5.675 16.347C4.177 15.981 3.248 15.164 2.701 14.254C2 13.087 2 11.887 2 11.678V11.319ZM16 11.551C16.0012 10.8488 15.8166 10.1588 15.465 9.55103H20.232C21.21 9.55103 22 10.342 22 11.319V11.679C22 11.886 22 13.087 21.3 14.254C20.752 15.164 19.823 15.981 18.325 16.347C18.1269 15.8193 17.7726 15.3647 17.3092 15.0437C16.8459 14.7228 16.2956 14.5509 15.732 14.551H14.646C15.0721 14.176 15.4133 13.7145 15.6468 13.1971C15.8802 12.6798 16.0007 12.1186 16 11.551ZM19.5 5.55103C19.5 6.34667 19.1839 7.10974 18.6213 7.67235C18.0587 8.23495 17.2956 8.55103 16.5 8.55103C15.7044 8.55103 14.9413 8.23495 14.3787 7.67235C13.8161 7.10974 13.5 6.34667 13.5 5.55103C13.5 4.75538 13.8161 3.99231 14.3787 3.42971C14.9413 2.8671 15.7044 2.55103 16.5 2.55103C17.2956 2.55103 18.0587 2.8671 18.6213 3.42971C19.1839 3.99231 19.5 4.75538 19.5 5.55103ZM6.5 17.319C6.5 16.341 7.291 15.551 8.268 15.551H15.732C16.709 15.551 17.5 16.342 17.5 17.319V17.679C17.5 17.886 17.5 19.087 16.8 20.254C16.057 21.488 14.613 22.551 12 22.551C9.387 22.551 7.942 21.488 7.2 20.254C6.5 19.087 6.5 17.887 6.5 17.678V17.319ZM12 14.551C12.394 14.551 12.7841 14.4734 13.1481 14.3227C13.512 14.1719 13.8427 13.9509 14.1213 13.6723C14.3999 13.3938 14.6209 13.0631 14.7716 12.6991C14.9224 12.3351 15 11.945 15 11.551C15 11.1571 14.9224 10.767 14.7716 10.403C14.6209 10.039 14.3999 9.70828 14.1213 9.4297C13.8427 9.15113 13.512 8.93015 13.1481 8.77939C12.7841 8.62862 12.394 8.55103 12 8.55103C11.2044 8.55103 10.4413 8.8671 9.87868 9.4297C9.31607 9.99231 9 10.7554 9 11.551C9 12.3467 9.31607 13.1097 9.87868 13.6723C10.4413 14.235 11.2044 14.551 12 14.551Z" fill="#C4C4C4"/>
</svg>
