<svg width="46" height="46" viewBox="0 0 46 46" fill="none" xmlns="http://www.w3.org/2000/svg">
<circle cx="23" cy="23" r="23" fill="#D3FFAE" fill-opacity="0.5"/>
<g clip-path="url(#clip0_2496_10301)">
<path d="M27.4627 25.2133L23.3238 29.4385L19.1848 25.2133C16.0828 25.3506 13.6055 27.9415 13.6055 31.1392V31.5643C13.6055 32.738 14.5383 33.6902 15.688 33.6902H30.9596C32.1093 33.6902 33.0421 32.738 33.0421 31.5643V31.1392C33.0421 27.9415 30.5648 25.3506 27.4627 25.2133ZM14.1955 14.5484L14.4732 14.6149V17.2014C14.1695 17.3874 13.9526 17.7107 13.9526 18.1004C13.9526 18.4725 14.1521 18.7825 14.4341 18.9729L13.7573 21.7321C13.6836 22.0377 13.8484 22.3522 14.087 22.3522H15.9006C16.1392 22.3522 16.304 22.0377 16.2303 21.7321L15.5535 18.9729C15.8355 18.7825 16.035 18.4725 16.035 18.1004C16.035 17.7107 15.8181 17.3874 15.5144 17.2014V14.8718L18.3779 15.576C18.0047 16.3377 17.7705 17.1881 17.7705 18.1004C17.7705 21.2317 20.2564 23.7695 23.3238 23.7695C26.3911 23.7695 28.8771 21.2317 28.8771 18.1004C28.8771 17.1881 28.6472 16.3377 28.2697 15.576L32.4477 14.5484C33.2373 14.3536 33.2373 13.3482 32.4477 13.1533L24.1871 11.116C23.6231 10.9787 23.0288 10.9787 22.4647 11.116L14.1955 13.1489C13.4102 13.3438 13.4102 14.3536 14.1955 14.5484Z" fill="#009621"/>
</g>
<defs>
<clipPath id="clip0_2496_10301">
<rect width="19.4366" height="22.6761" fill="white" transform="translate(13.6055 11.0142)"/>
</clipPath>
</defs>
</svg>
