<svg width="210" height="210" viewBox="0 0 210 210" fill="none" xmlns="http://www.w3.org/2000/svg">
<path d="M210 105C210 162.99 162.99 210 105 210C47.0101 210 0 162.99 0 105C0 47.0101 47.0101 0 105 0C162.99 0 210 47.0101 210 105ZM32.889 105C32.889 144.826 65.1742 177.111 105 177.111C144.826 177.111 177.111 144.826 177.111 105C177.111 65.1742 144.826 32.889 105 32.889C65.1742 32.889 32.889 65.1742 32.889 105Z" fill="#130204"/>
<mask id="path-2-inside-1_2496_10362" fill="white">
<path d="M193.556 105C202.638 105 210.132 112.407 208.715 121.378C206.892 132.923 203.148 144.121 197.602 154.497C189.462 169.725 177.692 182.711 163.335 192.304C148.978 201.898 132.476 207.802 115.292 209.494C98.1076 211.187 80.7712 208.615 64.8182 202.007C48.8653 195.399 34.7882 184.959 23.8339 171.611C12.8796 158.263 5.38624 142.42 2.01755 125.484C-1.35115 108.549 -0.491184 91.0439 4.52126 74.5201C7.93642 63.2618 13.2074 52.6958 20.0818 43.2432C25.4235 35.8981 35.9598 35.9598 42.3818 42.3818C48.8038 48.8038 48.6062 59.15 43.8023 66.8575C40.4683 72.2068 37.8375 77.9902 35.994 84.0673C32.5516 95.4154 31.961 107.437 34.2746 119.068C36.5881 130.699 41.7343 141.58 49.2574 150.747C56.7805 159.914 66.4483 167.084 77.4043 171.622C88.3603 176.16 100.266 177.926 112.068 176.764C123.87 175.601 135.203 171.546 145.063 164.958C154.923 158.37 163.006 149.451 168.596 138.993C171.59 133.392 173.819 127.442 175.244 121.302C177.297 112.456 184.473 105 193.556 105Z"/>
</mask>
<path d="M193.556 105C202.638 105 210.132 112.407 208.715 121.378C206.892 132.923 203.148 144.121 197.602 154.497C189.462 169.725 177.692 182.711 163.335 192.304C148.978 201.898 132.476 207.802 115.292 209.494C98.1076 211.187 80.7712 208.615 64.8182 202.007C48.8653 195.399 34.7882 184.959 23.8339 171.611C12.8796 158.263 5.38624 142.42 2.01755 125.484C-1.35115 108.549 -0.491184 91.0439 4.52126 74.5201C7.93642 63.2618 13.2074 52.6958 20.0818 43.2432C25.4235 35.8981 35.9598 35.9598 42.3818 42.3818C48.8038 48.8038 48.6062 59.15 43.8023 66.8575C40.4683 72.2068 37.8375 77.9902 35.994 84.0673C32.5516 95.4154 31.961 107.437 34.2746 119.068C36.5881 130.699 41.7343 141.58 49.2574 150.747C56.7805 159.914 66.4483 167.084 77.4043 171.622C88.3603 176.16 100.266 177.926 112.068 176.764C123.87 175.601 135.203 171.546 145.063 164.958C154.923 158.37 163.006 149.451 168.596 138.993C171.59 133.392 173.819 127.442 175.244 121.302C177.297 112.456 184.473 105 193.556 105Z" fill="#0AA9CC"/>
<path d="M193.556 105C202.638 105 210.132 112.407 208.715 121.378C206.892 132.923 203.148 144.121 197.602 154.497C189.462 169.725 177.692 182.711 163.335 192.304C148.978 201.898 132.476 207.802 115.292 209.494C98.1076 211.187 80.7712 208.615 64.8182 202.007C48.8653 195.399 34.7882 184.959 23.8339 171.611C12.8796 158.263 5.38624 142.42 2.01755 125.484C-1.35115 108.549 -0.491184 91.0439 4.52126 74.5201C7.93642 63.2618 13.2074 52.6958 20.0818 43.2432C25.4235 35.8981 35.9598 35.9598 42.3818 42.3818C48.8038 48.8038 48.6062 59.15 43.8023 66.8575C40.4683 72.2068 37.8375 77.9902 35.994 84.0673C32.5516 95.4154 31.961 107.437 34.2746 119.068C36.5881 130.699 41.7343 141.58 49.2574 150.747C56.7805 159.914 66.4483 167.084 77.4043 171.622C88.3603 176.16 100.266 177.926 112.068 176.764C123.87 175.601 135.203 171.546 145.063 164.958C154.923 158.37 163.006 149.451 168.596 138.993C171.59 133.392 173.819 127.442 175.244 121.302C177.297 112.456 184.473 105 193.556 105Z" fill="#0AA9CC"/>
<path d="M193.556 105C202.638 105 210.132 112.407 208.715 121.378C206.892 132.923 203.148 144.121 197.602 154.497C189.462 169.725 177.692 182.711 163.335 192.304C148.978 201.898 132.476 207.802 115.292 209.494C98.1076 211.187 80.7712 208.615 64.8182 202.007C48.8653 195.399 34.7882 184.959 23.8339 171.611C12.8796 158.263 5.38624 142.42 2.01755 125.484C-1.35115 108.549 -0.491184 91.0439 4.52126 74.5201C7.93642 63.2618 13.2074 52.6958 20.0818 43.2432C25.4235 35.8981 35.9598 35.9598 42.3818 42.3818C48.8038 48.8038 48.6062 59.15 43.8023 66.8575C40.4683 72.2068 37.8375 77.9902 35.994 84.0673C32.5516 95.4154 31.961 107.437 34.2746 119.068C36.5881 130.699 41.7343 141.58 49.2574 150.747C56.7805 159.914 66.4483 167.084 77.4043 171.622C88.3603 176.16 100.266 177.926 112.068 176.764C123.87 175.601 135.203 171.546 145.063 164.958C154.923 158.37 163.006 149.451 168.596 138.993C171.59 133.392 173.819 127.442 175.244 121.302C177.297 112.456 184.473 105 193.556 105Z" fill="#0AA9CC"/>
<path d="M193.556 105C202.638 105 210.132 112.407 208.715 121.378C206.892 132.923 203.148 144.121 197.602 154.497C189.462 169.725 177.692 182.711 163.335 192.304C148.978 201.898 132.476 207.802 115.292 209.494C98.1076 211.187 80.7712 208.615 64.8182 202.007C48.8653 195.399 34.7882 184.959 23.8339 171.611C12.8796 158.263 5.38624 142.42 2.01755 125.484C-1.35115 108.549 -0.491184 91.0439 4.52126 74.5201C7.93642 63.2618 13.2074 52.6958 20.0818 43.2432C25.4235 35.8981 35.9598 35.9598 42.3818 42.3818C48.8038 48.8038 48.6062 59.15 43.8023 66.8575C40.4683 72.2068 37.8375 77.9902 35.994 84.0673C32.5516 95.4154 31.961 107.437 34.2746 119.068C36.5881 130.699 41.7343 141.58 49.2574 150.747C56.7805 159.914 66.4483 167.084 77.4043 171.622C88.3603 176.16 100.266 177.926 112.068 176.764C123.87 175.601 135.203 171.546 145.063 164.958C154.923 158.37 163.006 149.451 168.596 138.993C171.59 133.392 173.819 127.442 175.244 121.302C177.297 112.456 184.473 105 193.556 105Z" fill="#0AA9CC"/>
<path d="M193.556 105C202.638 105 210.132 112.407 208.715 121.378C206.892 132.923 203.148 144.121 197.602 154.497C189.462 169.725 177.692 182.711 163.335 192.304C148.978 201.898 132.476 207.802 115.292 209.494C98.1076 211.187 80.7712 208.615 64.8182 202.007C48.8653 195.399 34.7882 184.959 23.8339 171.611C12.8796 158.263 5.38624 142.42 2.01755 125.484C-1.35115 108.549 -0.491184 91.0439 4.52126 74.5201C7.93642 63.2618 13.2074 52.6958 20.0818 43.2432C25.4235 35.8981 35.9598 35.9598 42.3818 42.3818C48.8038 48.8038 48.6062 59.15 43.8023 66.8575C40.4683 72.2068 37.8375 77.9902 35.994 84.0673C32.5516 95.4154 31.961 107.437 34.2746 119.068C36.5881 130.699 41.7343 141.58 49.2574 150.747C56.7805 159.914 66.4483 167.084 77.4043 171.622C88.3603 176.16 100.266 177.926 112.068 176.764C123.87 175.601 135.203 171.546 145.063 164.958C154.923 158.37 163.006 149.451 168.596 138.993C171.59 133.392 173.819 127.442 175.244 121.302C177.297 112.456 184.473 105 193.556 105Z" stroke="white" stroke-width="2" mask="url(#path-2-inside-1_2496_10362)"/>
<mask id="path-3-inside-2_2496_10362" fill="white">
<path d="M123.714 18.4445C125.633 9.56755 134.457 3.80806 142.926 7.0885C157.034 12.5534 169.858 21.028 180.467 31.9952C194.906 46.9212 204.595 65.7936 208.308 86.226C212.021 106.658 209.592 127.733 201.328 146.785C195.255 160.784 186.233 173.228 174.95 183.308C168.176 189.358 157.891 187.071 152.971 179.437C148.051 171.803 150.431 161.732 156.755 155.214C162.783 149.001 167.675 141.72 171.155 133.697C176.831 120.612 178.499 106.139 175.949 92.1066C173.399 78.0742 166.745 65.1131 156.829 54.8623C150.748 48.5762 143.607 43.4825 135.779 39.7876C127.566 35.911 121.795 27.3214 123.714 18.4445Z"/>
</mask>
<path d="M123.714 18.4445C125.633 9.56755 134.457 3.80806 142.926 7.0885C157.034 12.5534 169.858 21.028 180.467 31.9952C194.906 46.9212 204.595 65.7936 208.308 86.226C212.021 106.658 209.592 127.733 201.328 146.785C195.255 160.784 186.233 173.228 174.95 183.308C168.176 189.358 157.891 187.071 152.971 179.437C148.051 171.803 150.431 161.732 156.755 155.214C162.783 149.001 167.675 141.72 171.155 133.697C176.831 120.612 178.499 106.139 175.949 92.1066C173.399 78.0742 166.745 65.1131 156.829 54.8623C150.748 48.5762 143.607 43.4825 135.779 39.7876C127.566 35.911 121.795 27.3214 123.714 18.4445Z" fill="#0AA9CC"/>
<path d="M123.714 18.4445C125.633 9.56755 134.457 3.80806 142.926 7.0885C157.034 12.5534 169.858 21.028 180.467 31.9952C194.906 46.9212 204.595 65.7936 208.308 86.226C212.021 106.658 209.592 127.733 201.328 146.785C195.255 160.784 186.233 173.228 174.95 183.308C168.176 189.358 157.891 187.071 152.971 179.437C148.051 171.803 150.431 161.732 156.755 155.214C162.783 149.001 167.675 141.72 171.155 133.697C176.831 120.612 178.499 106.139 175.949 92.1066C173.399 78.0742 166.745 65.1131 156.829 54.8623C150.748 48.5762 143.607 43.4825 135.779 39.7876C127.566 35.911 121.795 27.3214 123.714 18.4445Z" fill="#0AA9CC"/>
<path d="M123.714 18.4445C125.633 9.56755 134.457 3.80806 142.926 7.0885C157.034 12.5534 169.858 21.028 180.467 31.9952C194.906 46.9212 204.595 65.7936 208.308 86.226C212.021 106.658 209.592 127.733 201.328 146.785C195.255 160.784 186.233 173.228 174.95 183.308C168.176 189.358 157.891 187.071 152.971 179.437C148.051 171.803 150.431 161.732 156.755 155.214C162.783 149.001 167.675 141.72 171.155 133.697C176.831 120.612 178.499 106.139 175.949 92.1066C173.399 78.0742 166.745 65.1131 156.829 54.8623C150.748 48.5762 143.607 43.4825 135.779 39.7876C127.566 35.911 121.795 27.3214 123.714 18.4445Z" fill="#0AA9CC"/>
<path d="M123.714 18.4445C125.633 9.56755 134.457 3.80806 142.926 7.0885C157.034 12.5534 169.858 21.028 180.467 31.9952C194.906 46.9212 204.595 65.7936 208.308 86.226C212.021 106.658 209.592 127.733 201.328 146.785C195.255 160.784 186.233 173.228 174.95 183.308C168.176 189.358 157.891 187.071 152.971 179.437C148.051 171.803 150.431 161.732 156.755 155.214C162.783 149.001 167.675 141.72 171.155 133.697C176.831 120.612 178.499 106.139 175.949 92.1066C173.399 78.0742 166.745 65.1131 156.829 54.8623C150.748 48.5762 143.607 43.4825 135.779 39.7876C127.566 35.911 121.795 27.3214 123.714 18.4445Z" fill="#C31162"/>
<path d="M123.714 18.4445C125.633 9.56755 134.457 3.80806 142.926 7.0885C157.034 12.5534 169.858 21.028 180.467 31.9952C194.906 46.9212 204.595 65.7936 208.308 86.226C212.021 106.658 209.592 127.733 201.328 146.785C195.255 160.784 186.233 173.228 174.95 183.308C168.176 189.358 157.891 187.071 152.971 179.437C148.051 171.803 150.431 161.732 156.755 155.214C162.783 149.001 167.675 141.72 171.155 133.697C176.831 120.612 178.499 106.139 175.949 92.1066C173.399 78.0742 166.745 65.1131 156.829 54.8623C150.748 48.5762 143.607 43.4825 135.779 39.7876C127.566 35.911 121.795 27.3214 123.714 18.4445Z" stroke="white" stroke-width="2" mask="url(#path-3-inside-2_2496_10362)"/>
<path d="M96.776 104V101.96C97.32 101.592 97.928 101.144 98.6 100.616C99.288 100.072 99.968 99.472 100.64 98.816C101.328 98.16 101.952 97.48 102.512 96.776C103.088 96.056 103.552 95.352 103.904 94.664C104.256 93.96 104.432 93.288 104.432 92.648C104.432 92.168 104.328 91.728 104.12 91.328C103.912 90.928 103.56 90.608 103.064 90.368C102.568 90.128 101.912 90.008 101.096 90.008C100.216 90.008 99.432 90.176 98.744 90.512C98.056 90.832 97.448 91.184 96.92 91.568V89.072C97.496 88.72 98.176 88.408 98.96 88.136C99.744 87.864 100.648 87.728 101.672 87.728C102.936 87.728 103.968 87.944 104.768 88.376C105.568 88.792 106.152 89.36 106.52 90.08C106.904 90.784 107.096 91.568 107.096 92.432C107.096 93.168 106.928 93.904 106.592 94.64C106.256 95.376 105.808 96.096 105.248 96.8C104.704 97.504 104.104 98.184 103.448 98.84C102.792 99.48 102.128 100.08 101.456 100.64C100.8 101.184 100.192 101.672 99.632 102.104L99.008 101.504H107.36V104H96.776Z" fill="#130204"/>
<path d="M62.584 127V118.614H59.28V117.662H66.882V118.614H63.592V127H62.584ZM70.0376 127.21C68.9456 127.21 68.1336 126.888 67.6016 126.244C67.0789 125.591 66.8176 124.685 66.8176 123.528C66.8176 122.315 67.0929 121.405 67.6436 120.798C68.2036 120.191 68.9922 119.888 70.0096 119.888C70.7656 119.888 71.3816 120.042 71.8576 120.35C72.3336 120.649 72.6836 121.073 72.9076 121.624C73.1316 122.165 73.2436 122.8 73.2436 123.528C73.2436 124.676 72.9636 125.577 72.4036 126.23C71.8529 126.883 71.0642 127.21 70.0376 127.21ZM70.0236 126.286C70.5929 126.286 71.0362 126.165 71.3536 125.922C71.6709 125.67 71.8949 125.339 72.0256 124.928C72.1656 124.508 72.2356 124.041 72.2356 123.528C72.2356 122.977 72.1656 122.501 72.0256 122.1C71.8856 121.689 71.6522 121.372 71.3256 121.148C71.0082 120.924 70.5742 120.812 70.0236 120.812C69.4636 120.812 69.0249 120.933 68.7076 121.176C68.3902 121.419 68.1616 121.745 68.0216 122.156C67.8909 122.557 67.8256 123.015 67.8256 123.528C67.8256 124.349 67.9889 125.017 68.3156 125.53C68.6422 126.034 69.2116 126.286 70.0236 126.286ZM77.6163 127.112C77.1216 127.112 76.7063 126.963 76.3703 126.664C76.0343 126.356 75.8663 125.903 75.8663 125.306V120.938H74.6483V120.014H75.8663V118.04H76.8743V120.014H78.6803V120.938H76.8743V124.984C76.8743 125.376 76.9349 125.67 77.0563 125.866C77.1776 126.062 77.4249 126.16 77.7983 126.16C77.9663 126.16 78.1296 126.146 78.2883 126.118C78.4469 126.081 78.5776 126.039 78.6803 125.992V126.944C78.5496 126.991 78.3816 127.028 78.1763 127.056C77.9803 127.093 77.7936 127.112 77.6163 127.112ZM83.1922 127.21C82.8842 127.21 82.5716 127.177 82.2542 127.112C81.9462 127.047 81.6569 126.935 81.3862 126.776C81.1249 126.617 80.9102 126.403 80.7422 126.132C80.5836 125.852 80.5042 125.502 80.5042 125.082C80.5042 124.503 80.6116 124.041 80.8262 123.696C81.0502 123.341 81.3536 123.089 81.7362 122.94C82.1282 122.781 82.5762 122.702 83.0802 122.702C83.4629 122.702 83.7942 122.725 84.0742 122.772C84.3542 122.819 84.6016 122.889 84.8162 122.982C85.0402 123.066 85.2409 123.164 85.4182 123.276L85.6142 124.2C85.3996 124.041 85.0869 123.906 84.6762 123.794C84.2749 123.673 83.8316 123.612 83.3462 123.612C82.7582 123.612 82.3056 123.724 81.9882 123.948C81.6709 124.172 81.5122 124.499 81.5122 124.928C81.5122 125.273 81.6056 125.549 81.7922 125.754C81.9882 125.959 82.2309 126.104 82.5202 126.188C82.8189 126.272 83.1222 126.314 83.4302 126.314C84.0369 126.314 84.4942 126.272 84.8022 126.188C85.1196 126.095 85.2782 125.889 85.2782 125.572V122.366C85.2782 121.825 85.1196 121.428 84.8022 121.176C84.4849 120.924 84.0322 120.798 83.4442 120.798C83.0709 120.798 82.6742 120.854 82.2542 120.966C81.8436 121.069 81.4889 121.237 81.1902 121.47V120.462C81.4796 120.275 81.8669 120.135 82.3522 120.042C82.8376 119.939 83.3089 119.888 83.7662 119.888C84.0742 119.888 84.3589 119.921 84.6202 119.986C84.8816 120.042 85.1149 120.131 85.3202 120.252C85.5256 120.364 85.6982 120.513 85.8382 120.7C85.9876 120.877 86.0996 121.087 86.1742 121.33C86.2582 121.563 86.3002 121.829 86.3002 122.128V125.516C86.3002 126.011 86.1509 126.379 85.8522 126.622C85.5629 126.865 85.1802 127.023 84.7042 127.098C84.2376 127.173 83.7336 127.21 83.1922 127.21ZM89.8242 127H88.8162V117.354H89.8242V127ZM100.667 127.112C99.2293 127.112 98.1466 126.711 97.4186 125.908C96.7 125.105 96.3406 123.911 96.3406 122.324C96.3406 120.737 96.7 119.543 97.4186 118.74C98.1466 117.937 99.2293 117.536 100.667 117.536C101.161 117.536 101.647 117.597 102.123 117.718C102.599 117.839 103.061 118.007 103.509 118.222V119.188C103.079 118.955 102.636 118.782 102.179 118.67C101.721 118.549 101.255 118.488 100.779 118.488C99.9946 118.488 99.3506 118.623 98.8466 118.894C98.352 119.165 97.9833 119.585 97.7406 120.154C97.5073 120.714 97.3906 121.437 97.3906 122.324C97.3906 123.211 97.5073 123.939 97.7406 124.508C97.9833 125.068 98.352 125.483 98.8466 125.754C99.3506 126.025 99.9946 126.16 100.779 126.16C101.255 126.16 101.721 126.104 102.179 125.992C102.636 125.88 103.079 125.707 103.509 125.474V126.44C103.21 126.58 102.902 126.701 102.585 126.804C102.277 126.907 101.959 126.981 101.633 127.028C101.315 127.084 100.993 127.112 100.667 127.112ZM108.55 127.21C107.458 127.21 106.646 126.888 106.114 126.244C105.591 125.591 105.33 124.685 105.33 123.528C105.33 122.315 105.605 121.405 106.156 120.798C106.716 120.191 107.504 119.888 108.522 119.888C109.278 119.888 109.894 120.042 110.37 120.35C110.846 120.649 111.196 121.073 111.42 121.624C111.644 122.165 111.756 122.8 111.756 123.528C111.756 124.676 111.476 125.577 110.916 126.23C110.365 126.883 109.576 127.21 108.55 127.21ZM108.536 126.286C109.105 126.286 109.548 126.165 109.866 125.922C110.183 125.67 110.407 125.339 110.538 124.928C110.678 124.508 110.748 124.041 110.748 123.528C110.748 122.977 110.678 122.501 110.538 122.1C110.398 121.689 110.164 121.372 109.838 121.148C109.52 120.924 109.086 120.812 108.536 120.812C107.976 120.812 107.537 120.933 107.22 121.176C106.902 121.419 106.674 121.745 106.534 122.156C106.403 122.557 106.338 123.015 106.338 123.528C106.338 124.349 106.501 125.017 106.828 125.53C107.154 126.034 107.724 126.286 108.536 126.286ZM116.856 127.21C116.24 127.21 115.713 127.103 115.274 126.888C114.836 126.673 114.5 126.361 114.266 125.95C114.042 125.539 113.93 125.035 113.93 124.438V120.014H114.938V124.214C114.938 124.923 115.092 125.446 115.4 125.782C115.718 126.109 116.203 126.272 116.856 126.272C117.51 126.272 117.99 126.109 118.298 125.782C118.616 125.446 118.774 124.923 118.774 124.214V120.014H119.782V124.438C119.782 125.325 119.526 126.011 119.012 126.496C118.508 126.972 117.79 127.21 116.856 127.21ZM122.304 127V120.574C122.416 120.527 122.631 120.448 122.948 120.336C123.275 120.224 123.662 120.121 124.11 120.028C124.567 119.935 125.039 119.888 125.524 119.888C125.599 119.888 125.673 119.897 125.748 119.916C125.823 119.935 125.897 119.953 125.972 119.972V120.868C125.729 120.84 125.491 120.826 125.258 120.826C125.034 120.826 124.815 120.84 124.6 120.868C124.385 120.887 124.171 120.915 123.956 120.952C123.741 120.989 123.527 121.027 123.312 121.064V127H122.304ZM129.835 127.21C129.331 127.21 128.907 127.159 128.561 127.056C128.225 126.953 127.875 126.809 127.511 126.622V125.558C127.801 125.717 128.057 125.852 128.281 125.964C128.505 126.076 128.734 126.16 128.967 126.216C129.201 126.263 129.467 126.286 129.765 126.286C130.232 126.286 130.61 126.183 130.899 125.978C131.198 125.773 131.347 125.507 131.347 125.18C131.347 124.919 131.273 124.718 131.123 124.578C130.983 124.438 130.801 124.321 130.577 124.228C130.353 124.135 130.12 124.037 129.877 123.934C129.607 123.859 129.331 123.78 129.051 123.696C128.781 123.603 128.529 123.486 128.295 123.346C128.071 123.197 127.889 123.01 127.749 122.786C127.609 122.553 127.539 122.254 127.539 121.89C127.539 121.535 127.609 121.232 127.749 120.98C127.899 120.728 128.09 120.523 128.323 120.364C128.557 120.196 128.818 120.075 129.107 120C129.397 119.925 129.686 119.888 129.975 119.888C130.395 119.888 130.755 119.944 131.053 120.056C131.352 120.168 131.66 120.294 131.977 120.434V121.442C131.623 121.255 131.305 121.106 131.025 120.994C130.745 120.873 130.414 120.812 130.031 120.812C129.649 120.812 129.303 120.891 128.995 121.05C128.697 121.199 128.547 121.433 128.547 121.75C128.547 122.011 128.622 122.221 128.771 122.38C128.93 122.529 129.135 122.651 129.387 122.744C129.639 122.828 129.91 122.912 130.199 122.996C130.433 123.071 130.675 123.155 130.927 123.248C131.179 123.332 131.413 123.449 131.627 123.598C131.842 123.738 132.015 123.925 132.145 124.158C132.285 124.391 132.355 124.69 132.355 125.054C132.355 125.549 132.229 125.959 131.977 126.286C131.725 126.603 131.403 126.837 131.011 126.986C130.629 127.135 130.237 127.21 129.835 127.21ZM137.41 127.21C136.748 127.21 136.174 127.075 135.688 126.804C135.203 126.524 134.83 126.109 134.568 125.558C134.307 125.007 134.176 124.321 134.176 123.5C134.176 122.296 134.447 121.395 134.988 120.798C135.539 120.191 136.29 119.888 137.242 119.888C137.989 119.888 138.586 120.056 139.034 120.392C139.492 120.728 139.818 121.181 140.014 121.75C140.21 122.319 140.304 122.963 140.294 123.682H134.68L134.75 122.758H139.636L139.244 122.898C139.216 122.198 139.039 121.675 138.712 121.33C138.395 120.985 137.905 120.812 137.242 120.812C136.785 120.812 136.402 120.896 136.094 121.064C135.796 121.232 135.572 121.526 135.422 121.946C135.273 122.357 135.198 122.935 135.198 123.682C135.198 124.531 135.394 125.18 135.786 125.628C136.188 126.067 136.748 126.286 137.466 126.286C137.812 126.286 138.129 126.263 138.418 126.216C138.708 126.16 138.974 126.085 139.216 125.992C139.459 125.899 139.674 125.796 139.86 125.684V126.72C139.524 126.879 139.151 127 138.74 127.084C138.339 127.168 137.896 127.21 137.41 127.21ZM144.436 127.21C143.932 127.21 143.508 127.159 143.162 127.056C142.826 126.953 142.476 126.809 142.112 126.622V125.558C142.402 125.717 142.658 125.852 142.882 125.964C143.106 126.076 143.335 126.16 143.568 126.216C143.802 126.263 144.068 126.286 144.366 126.286C144.833 126.286 145.211 126.183 145.5 125.978C145.799 125.773 145.948 125.507 145.948 125.18C145.948 124.919 145.874 124.718 145.724 124.578C145.584 124.438 145.402 124.321 145.178 124.228C144.954 124.135 144.721 124.037 144.478 123.934C144.208 123.859 143.932 123.78 143.652 123.696C143.382 123.603 143.13 123.486 142.896 123.346C142.672 123.197 142.49 123.01 142.35 122.786C142.21 122.553 142.14 122.254 142.14 121.89C142.14 121.535 142.21 121.232 142.35 120.98C142.5 120.728 142.691 120.523 142.924 120.364C143.158 120.196 143.419 120.075 143.708 120C143.998 119.925 144.287 119.888 144.576 119.888C144.996 119.888 145.356 119.944 145.654 120.056C145.953 120.168 146.261 120.294 146.578 120.434V121.442C146.224 121.255 145.906 121.106 145.626 120.994C145.346 120.873 145.015 120.812 144.632 120.812C144.25 120.812 143.904 120.891 143.596 121.05C143.298 121.199 143.148 121.433 143.148 121.75C143.148 122.011 143.223 122.221 143.372 122.38C143.531 122.529 143.736 122.651 143.988 122.744C144.24 122.828 144.511 122.912 144.8 122.996C145.034 123.071 145.276 123.155 145.528 123.248C145.78 123.332 146.014 123.449 146.228 123.598C146.443 123.738 146.616 123.925 146.746 124.158C146.886 124.391 146.956 124.69 146.956 125.054C146.956 125.549 146.83 125.959 146.578 126.286C146.326 126.603 146.004 126.837 145.612 126.986C145.23 127.135 144.838 127.21 144.436 127.21Z" fill="#626466"/>
</svg>
