<svg width="53" height="53" viewBox="0 0 53 53" fill="none" xmlns="http://www.w3.org/2000/svg">
<path d="M52.3881 26.194C52.3881 40.6606 40.6606 52.3881 26.194 52.3881C11.7275 52.3881 0 40.6606 0 26.194C0 11.7275 11.7275 0 26.194 0C40.6606 0 52.3881 11.7275 52.3881 26.194ZM3.0005 26.194C3.0005 39.0035 13.3846 49.3876 26.194 49.3876C39.0035 49.3876 49.3876 39.0035 49.3876 26.194C49.3876 13.3846 39.0035 3.0005 26.194 3.0005C13.3846 3.0005 3.0005 13.3846 3.0005 26.194Z" fill="#D9D9D9"/>
<path d="M50.9474 26.194C51.743 26.194 52.3922 26.8396 52.3485 27.634C52.1368 31.4779 51.0801 35.2341 49.2464 38.6324C47.1844 42.4541 44.2046 45.7031 40.5752 48.0872C36.9457 50.4713 32.7805 51.9157 28.4542 52.2904C24.128 52.6651 19.7764 51.9583 15.7911 50.2337C11.8058 48.5091 8.3118 45.8208 5.62342 42.4106C2.93503 39.0004 1.13664 34.9753 0.390047 30.6975C-0.356546 26.4198 -0.0279168 22.0235 1.34637 17.9042C2.56842 14.2413 4.58322 10.8996 7.24038 8.11402C7.78958 7.5383 8.70452 7.5696 9.24919 8.14961C9.79386 8.72962 9.76158 9.6384 9.21631 10.2178C6.90528 12.6737 5.15047 15.6063 4.07961 18.8161C2.8565 22.4822 2.56402 26.3949 3.22849 30.2022C3.89295 34.0094 5.49352 37.5917 7.88618 40.6268C10.2788 43.6618 13.3885 46.0545 16.9354 47.5894C20.4824 49.1242 24.3552 49.7532 28.2056 49.4198C32.056 49.0863 35.763 47.8008 38.9932 45.6789C42.2234 43.5571 44.8755 40.6655 46.7107 37.2642C48.3174 34.2863 49.254 30.9996 49.4622 27.6338C49.5114 26.8397 50.1517 26.194 50.9474 26.194Z" fill="#00439F"/>
<path d="M18.5458 30.8919C18.3452 30.8919 18.1553 30.8776 17.9762 30.8489C17.8043 30.8274 17.6467 30.7952 17.5034 30.7522V30.0322C17.6395 30.0608 17.7864 30.0895 17.944 30.1181C18.1088 30.1468 18.2807 30.1611 18.4598 30.1611C18.5816 30.1611 18.7464 30.1396 18.9541 30.0967C19.1691 30.0537 19.3947 29.9749 19.6312 29.8602C19.8676 29.7456 20.0933 29.5773 20.3082 29.3552C20.5231 29.1331 20.6986 28.8429 20.8347 28.4847C20.9709 28.1265 21.0389 27.6859 21.0389 27.1629C21.0389 26.5468 20.9959 26.0489 20.91 25.6692C20.8312 25.2823 20.713 24.9886 20.5553 24.788C20.4049 24.5874 20.2294 24.4513 20.0288 24.3796C19.8282 24.308 19.6097 24.2722 19.3733 24.2722C18.9864 24.2722 18.6783 24.3402 18.4491 24.4764C18.227 24.6125 18.0622 24.7773 17.9547 24.9707C17.8544 25.1641 17.7864 25.354 17.7506 25.5402C17.7219 25.7265 17.7076 25.8698 17.7076 25.9701C17.7076 26.4573 17.8509 26.8334 18.1374 27.0984C18.424 27.3635 18.8359 27.4961 19.3733 27.4961C19.6956 27.4961 19.9786 27.4495 20.2222 27.3564C20.473 27.2561 20.6807 27.1486 20.8455 27.034C21.0103 26.9122 21.1213 26.8226 21.1786 26.7653L21.1679 27.625C21.1034 27.668 21.0103 27.7253 20.8885 27.797C20.7739 27.8614 20.6377 27.9259 20.4801 27.9904C20.3225 28.0549 20.1506 28.1086 19.9643 28.1516C19.778 28.1946 19.581 28.2161 19.3733 28.2161C18.621 28.2161 18.0264 28.0155 17.5894 27.6143C17.1524 27.2059 16.9338 26.6543 16.9338 25.9593C16.9338 25.6799 16.9768 25.4005 17.0628 25.1211C17.1488 24.8346 17.2885 24.5731 17.4819 24.3367C17.6753 24.0931 17.9261 23.8996 18.2341 23.7564C18.5422 23.6131 18.9219 23.5414 19.3733 23.5414C20.1828 23.5414 20.7918 23.8244 21.2001 24.3904C21.6085 24.9492 21.8127 25.7874 21.8127 26.905C21.8127 27.6214 21.7303 28.2232 21.5655 28.7104C21.4079 29.1904 21.2001 29.5773 20.9422 29.871C20.6843 30.1575 20.4085 30.3761 20.1147 30.5265C19.821 30.6698 19.5344 30.7665 19.255 30.8167C18.9756 30.8668 18.7392 30.8919 18.5458 30.8919ZM26.6476 30.8059V28.6567H23.1658V27.8292L26.5508 23.6381H27.4213V27.9367H28.4422V28.6567H27.4213V30.8059H26.6476ZM24.0255 27.9367H26.6476V24.745L24.0255 27.9367ZM31.3632 27.4853C30.8617 27.4853 30.482 27.3205 30.2241 26.991C29.9662 26.6543 29.8373 26.1599 29.8373 25.508C29.8373 24.8489 29.9662 24.3546 30.2241 24.025C30.482 23.6955 30.8617 23.5307 31.3632 23.5307C31.8647 23.5307 32.2408 23.6955 32.4916 24.025C32.7495 24.3546 32.8785 24.8489 32.8785 25.508C32.8785 26.1599 32.7495 26.6543 32.4916 26.991C32.2408 27.3205 31.8647 27.4853 31.3632 27.4853ZM31.3632 26.948C31.4564 26.948 31.5674 26.9158 31.6964 26.8513C31.8325 26.7868 31.9543 26.6507 32.0617 26.4429C32.1692 26.2352 32.2229 25.9235 32.2229 25.508C32.2229 25.0853 32.1692 24.7737 32.0617 24.5731C31.9543 24.3653 31.8325 24.2292 31.6964 24.1647C31.5674 24.1002 31.4564 24.068 31.3632 24.068C31.2701 24.068 31.1555 24.1002 31.0194 24.1647C30.8832 24.2292 30.7614 24.3653 30.654 24.5731C30.5465 24.7737 30.4928 25.0853 30.4928 25.508C30.4928 25.9235 30.5465 26.2352 30.654 26.4429C30.7614 26.6507 30.8832 26.7868 31.0194 26.8513C31.1555 26.9158 31.2701 26.948 31.3632 26.948ZM35.4683 30.8596C34.9668 30.8596 34.5871 30.6949 34.3292 30.3653C34.0713 30.0286 33.9423 29.5343 33.9423 28.8823C33.9423 28.2232 34.0713 27.7289 34.3292 27.3993C34.5871 27.0698 34.9668 26.905 35.4683 26.905C35.9698 26.905 36.3459 27.0698 36.5967 27.3993C36.8546 27.7289 36.9835 28.2232 36.9835 28.8823C36.9835 29.5343 36.8546 30.0286 36.5967 30.3653C36.3459 30.6949 35.9698 30.8596 35.4683 30.8596ZM35.4683 30.3223C35.5614 30.3223 35.6725 30.2901 35.8014 30.2256C35.9376 30.1611 36.0594 30.025 36.1668 29.8173C36.2743 29.6095 36.328 29.2978 36.328 28.8823C36.328 28.4596 36.2743 28.148 36.1668 27.9474C36.0594 27.7396 35.9376 27.6035 35.8014 27.539C35.6725 27.4746 35.5614 27.4423 35.4683 27.4423C35.3752 27.4423 35.2605 27.4746 35.1244 27.539C34.9883 27.6035 34.8665 27.7396 34.7591 27.9474C34.6516 28.148 34.5979 28.4596 34.5979 28.8823C34.5979 29.2978 34.6516 29.6095 34.7591 29.8173C34.8665 30.025 34.9883 30.1611 35.1244 30.2256C35.2605 30.2901 35.3752 30.3223 35.4683 30.3223ZM30.8152 31.0423L35.1889 23.4447H35.9197L31.5459 31.0423H30.8152Z" fill="#6E6E6E"/>
</svg>
