<svg width="202" height="188" viewBox="0 0 202 188" fill="none" xmlns="http://www.w3.org/2000/svg">
<rect width="202" height="188" rx="30" fill="#FF4155"/>
<path d="M110 135.625H92V142.375H110V135.625ZM59.375 103V85.0002H52.625V103H59.375ZM142.625 101.034V103H149.375V101.034H142.625ZM114.01 60.7498L131.825 76.7833L136.339 71.7613L118.528 55.7278L114.01 60.7498ZM149.375 101.034C149.375 93.4332 149.443 88.6182 147.53 84.3162L141.361 87.0657C142.558 89.7567 142.625 92.8392 142.625 101.034H149.375ZM131.825 76.7833C137.914 82.2643 140.164 84.3792 141.361 87.0657L147.53 84.3162C145.613 80.0097 141.991 76.8463 136.339 71.7613L131.825 76.7833ZM92.135 52.3753C99.254 52.3753 101.941 52.4293 104.33 53.3473L106.751 47.0473C102.917 45.5713 98.741 45.6253 92.135 45.6253V52.3753ZM118.528 55.7323C113.641 51.3358 110.585 48.5143 106.751 47.0473L104.335 53.3473C106.729 54.2653 108.745 56.0113 114.01 60.7498L118.528 55.7323ZM92 135.625C83.4185 135.625 77.3255 135.616 72.695 134.995C68.1725 134.388 65.5625 133.245 63.659 131.341L58.889 136.111C62.255 139.486 66.5255 140.976 71.7995 141.687C76.9745 142.384 83.612 142.375 92 142.375V135.625ZM52.625 103C52.625 111.388 52.616 118.021 53.3135 123.201C54.0245 128.475 55.5185 132.745 58.8845 136.116L63.6545 131.346C61.7555 129.438 60.6125 126.828 60.005 122.301C59.384 117.679 59.375 111.582 59.375 103H52.625ZM110 142.375C118.388 142.375 125.021 142.384 130.201 141.687C135.475 140.976 139.745 139.482 143.116 136.116L138.346 131.346C136.438 133.245 133.828 134.388 129.301 134.995C124.679 135.616 118.582 135.625 110 135.625V142.375ZM142.625 103C142.625 111.582 142.616 117.679 141.995 122.305C141.388 126.828 140.245 129.438 138.341 131.341L143.111 136.111C146.486 132.745 147.976 128.475 148.687 123.201C149.384 118.026 149.375 111.388 149.375 103H142.625ZM59.375 85.0002C59.375 76.4187 59.384 70.3258 60.005 65.6953C60.6125 61.1728 61.7555 58.5628 63.659 56.6593L58.889 51.8893C55.514 55.2553 54.0245 59.5258 53.3135 64.7998C52.616 69.9748 52.625 76.6122 52.625 85.0002H59.375ZM92.135 45.6253C83.6975 45.6253 77.033 45.6163 71.8355 46.3138C66.539 47.0248 62.255 48.5188 58.8845 51.8848L63.6545 56.6548C65.5625 54.7558 68.177 53.6128 72.731 53.0053C77.3795 52.3843 83.5085 52.3753 92.135 52.3753V45.6253Z" fill="white"/>
<path opacity="0.5" d="M105.5 51.25V62.5C105.5 73.1065 105.5 78.412 108.794 81.706C112.088 85 117.393 85 128 85H146" stroke="white" stroke-width="6.75"/>
</svg>
