<svg width="24" height="25" viewBox="0 0 24 25" fill="none" xmlns="http://www.w3.org/2000/svg">
<path d="M12 2.55103C17.523 2.55103 22 7.02803 22 12.551C22 18.074 17.523 22.551 12 22.551C10.3822 22.5532 8.78829 22.1612 7.35601 21.409L3.06601 22.526C2.92267 22.5634 2.77205 22.5626 2.6291 22.5238C2.48615 22.485 2.35582 22.4095 2.25102 22.3048C2.14623 22.2001 2.07062 22.0698 2.03168 21.9269C1.99273 21.784 1.99181 21.6334 2.02901 21.49L3.14501 17.201C2.39081 15.7672 1.99778 14.1711 2.00001 12.551C2.00001 7.02803 6.47701 2.55103 12 2.55103ZM12 16.051C11.7348 16.051 11.4804 16.1564 11.2929 16.3439C11.1054 16.5315 11 16.7858 11 17.051C11 17.3162 11.1054 17.5706 11.2929 17.7581C11.4804 17.9457 11.7348 18.051 12 18.051C12.2652 18.051 12.5196 17.9457 12.7071 17.7581C12.8947 17.5706 13 17.3162 13 17.051C13 16.7858 12.8947 16.5315 12.7071 16.3439C12.5196 16.1564 12.2652 16.051 12 16.051ZM12 7.30103C11.2707 7.30103 10.5712 7.59076 10.0555 8.10648C9.53974 8.62221 9.25001 9.32168 9.25001 10.051C9.25007 10.241 9.32225 10.424 9.45198 10.5628C9.58171 10.7017 9.75931 10.7861 9.94889 10.7991C10.1385 10.812 10.3259 10.7525 10.4733 10.6326C10.6207 10.5127 10.7171 10.3413 10.743 10.153L10.757 9.92303C10.7908 9.60509 10.9451 9.31218 11.1882 9.10454C11.4314 8.8969 11.7448 8.79032 12.0641 8.80671C12.3834 8.8231 12.6843 8.96123 12.9049 9.19268C13.1255 9.42413 13.249 9.7313 13.25 10.051C13.25 10.59 13.115 10.856 12.605 11.383L12.301 11.693C11.547 12.477 11.25 13.04 11.25 14.051C11.25 14.2499 11.329 14.4407 11.4697 14.5814C11.6103 14.722 11.8011 14.801 12 14.801C12.1989 14.801 12.3897 14.722 12.5303 14.5814C12.671 14.4407 12.75 14.2499 12.75 14.051C12.75 13.512 12.885 13.246 13.395 12.719L13.699 12.409C14.453 11.625 14.75 11.062 14.75 10.051C14.75 9.32168 14.4603 8.62221 13.9446 8.10648C13.4288 7.59076 12.7294 7.30103 12 7.30103Z" fill="#C4C4C4"/>
</svg>
