<svg width="46" height="46" viewBox="0 0 46 46" fill="none" xmlns="http://www.w3.org/2000/svg">
<circle cx="22" cy="22" r="22" fill="#DEEBFF" fill-opacity="0.5"/>
<path d="M14.9773 10.6863C14.9446 10.6863 14.9116 10.6869 14.879 10.6877C14.0954 10.7088 13.3502 10.9835 12.7306 11.4261C11.0781 12.6063 10.2833 15.0685 11.8318 17.174C13.0536 18.8348 12.5211 21.0277 11.2569 22.253L11.8878 22.902C13.4487 21.3892 14.0787 18.7015 12.5611 16.6383C11.2921 14.913 11.9621 13.0879 13.2571 12.163C13.9046 11.7004 14.6983 11.4847 15.4978 11.6425C16.2653 11.7938 17.0633 12.2869 17.7688 13.337L14.8699 15.0149L16.0485 17.0619C13.6327 20.1577 13.1926 24.5394 15.2739 28.1551C18.0087 32.9063 24.0621 34.5364 28.7954 31.7955C33.5288 29.0545 35.1493 22.9811 32.4145 18.2299C30.3369 14.6206 26.3427 12.8138 22.4681 13.3552L21.285 11.3005L18.5525 12.8816C17.7335 11.6426 16.7101 10.9589 15.6733 10.7544C15.444 10.7091 15.2109 10.6863 14.9773 10.6863ZM23.214 14.6139C27.0824 14.6139 30.2252 17.7293 30.2252 21.5979C30.2252 25.4663 27.0824 28.6106 23.214 28.6106C19.3456 28.6106 16.23 25.4662 16.23 21.5979C16.23 17.7295 19.3456 14.6139 23.214 14.6139H23.214ZM22.7737 15.8334V20.1031C22.1323 20.3061 21.6526 20.916 21.6526 21.6146C21.6526 22.4728 22.377 23.1699 23.2352 23.1699C24.0496 23.1699 24.7182 22.5421 24.7845 21.7447L28.4898 19.0879L27.9618 18.3525L24.559 20.793C24.3604 20.465 24.0486 20.2124 23.6785 20.0985V15.8333H22.7737L22.7737 15.8334ZM20.7312 16.3812L19.9475 16.8335L20.642 18.0363L21.4258 17.5825L20.7313 16.3812L20.7312 16.3812ZM25.7211 16.3812L25.0266 17.5824L25.8103 18.0363L26.5048 16.8335L25.7211 16.3812ZM18.4527 18.3284L18.0003 19.1121L19.2015 19.8065L19.6539 19.0228L18.4526 18.3283L18.4527 18.3284ZM23.2352 20.9368C23.6045 20.9368 23.8858 21.2454 23.8858 21.6146C23.8858 21.9838 23.6045 22.2651 23.2353 22.2651C22.866 22.2651 22.5575 21.9838 22.5575 21.6145C22.5575 21.2453 22.866 20.9367 23.2353 20.9367L23.2352 20.9368ZM17.4526 21.1546V22.0594H18.84V21.1546L17.4526 21.1546ZM27.6108 21.1546V22.0594H28.9996V21.1546H27.6108L27.6108 21.1546ZM19.2015 23.4089L18.0004 24.1019L18.4527 24.8856L19.6539 24.1911L19.2015 23.4089ZM27.2506 23.4089L26.7983 24.1911L27.9996 24.8856L28.452 24.1018L27.2506 23.4089ZM20.6419 25.1791L19.9475 26.3804L20.7312 26.8328L21.4257 25.6314L20.6419 25.179L20.6419 25.1791ZM25.8103 25.1791L25.0266 25.6315L25.7211 26.8328L26.5048 26.3804L25.8103 25.179L25.8103 25.1791ZM22.7738 25.9931V27.3805H23.6785V25.9931H22.7737L22.7738 25.9931Z" fill="#2B75E2"/>
<g clip-path="url(#clip0_2496_10299)">
<path opacity="0.5" d="M22.9359 11.8618C22.657 11.8618 22.6076 11.5839 22.5989 11.3634C22.5965 11.3021 22.5952 11.2714 22.6183 11.2431C22.6413 11.2147 22.6689 11.2101 22.724 11.2008C22.794 11.1893 22.8649 11.1837 22.9359 11.184C23.0222 11.184 23.0934 11.1916 23.1478 11.2008C23.2029 11.2101 23.2305 11.2147 23.2535 11.2431C23.2765 11.2715 23.2753 11.3021 23.2729 11.3634C23.2641 11.5838 23.2148 11.8618 22.9359 11.8618Z" fill="#2B75E2"/>
<path d="M23.2103 11.6886L23.3467 11.6128C23.3831 11.5926 23.4013 11.5824 23.4114 11.5654C23.4214 11.5484 23.4214 11.5275 23.4214 11.4858V11.4823C23.4214 11.4318 23.4214 11.4065 23.4077 11.3875C23.394 11.3685 23.3701 11.3605 23.3221 11.3445L23.2762 11.3292L23.2754 11.3333C23.2751 11.3425 23.2747 11.3525 23.2743 11.3634C23.27 11.4711 23.256 11.5926 23.2104 11.6886H23.2103ZM22.6003 11.3634C22.6045 11.4711 22.6185 11.5926 22.6642 11.6886L22.5278 11.6128C22.4914 11.5926 22.4732 11.5824 22.4631 11.5654C22.4531 11.5484 22.4531 11.5275 22.4531 11.4858V11.4823C22.4531 11.4318 22.4531 11.4065 22.4668 11.3875C22.4805 11.3685 22.5045 11.3605 22.5524 11.3445L22.5984 11.3292L22.5992 11.3334C22.5994 11.3425 22.5998 11.3525 22.6003 11.3635L22.6003 11.3634Z" fill="#2B75E2"/>
<path fill-rule="evenodd" clip-rule="evenodd" d="M22.6133 12.1523C22.6133 12.1426 22.6171 12.1334 22.6239 12.1266C22.6307 12.1198 22.64 12.116 22.6496 12.116H23.2306C23.2402 12.116 23.2494 12.1198 23.2563 12.1266C23.2631 12.1334 23.2669 12.1426 23.2669 12.1523C23.2669 12.1619 23.2631 12.1711 23.2563 12.178C23.2494 12.1848 23.2402 12.1886 23.2306 12.1886H22.6496C22.64 12.1886 22.6307 12.1848 22.6239 12.178C22.6171 12.1711 22.6133 12.1619 22.6133 12.1523Z" fill="#2B75E2"/>
<path opacity="0.5" d="M23.1043 12.116H22.7695L22.7839 12.0312C22.7861 12.0203 22.792 12.0104 22.8007 12.0033C22.8093 11.9962 22.8202 11.9923 22.8314 11.9923H23.0424C23.0536 11.9923 23.0645 11.9962 23.0732 12.0033C23.0818 12.0104 23.0878 12.0203 23.0899 12.0312L23.1043 12.116Z" fill="#2B75E2"/>
<path d="M22.9382 11.8618C22.9256 11.8618 22.9135 11.8613 22.9019 11.8601V11.9923H22.9745V11.8601C22.9625 11.8613 22.9504 11.8618 22.9382 11.8618ZM22.8969 11.3788C22.9153 11.3457 22.9245 11.3292 22.9382 11.3292C22.952 11.3292 22.9612 11.3457 22.9796 11.3788L22.9843 11.3873C22.9895 11.3967 22.9922 11.4013 22.9962 11.4044C23.0003 11.4075 23.0054 11.4087 23.0156 11.4109L23.0248 11.4131C23.0605 11.4212 23.0784 11.4252 23.0827 11.4388C23.0869 11.4525 23.0747 11.4668 23.0504 11.4952L23.0441 11.5026C23.0371 11.5107 23.0337 11.5147 23.0321 11.5197C23.0306 11.5248 23.0311 11.5301 23.0321 11.5409L23.0331 11.5508C23.0368 11.5888 23.0386 11.6078 23.0275 11.6162C23.0164 11.6247 22.9996 11.617 22.9662 11.6016L22.9575 11.5976C22.948 11.5932 22.9433 11.5911 22.9382 11.5911C22.9332 11.5911 22.9284 11.5932 22.9189 11.5976L22.9103 11.6016C22.8768 11.617 22.8601 11.6247 22.849 11.6162C22.8378 11.6078 22.8397 11.5888 22.8434 11.5508L22.8444 11.5409C22.8454 11.5301 22.8459 11.5248 22.8444 11.5197C22.8428 11.5148 22.8393 11.5107 22.8324 11.5026L22.8261 11.4952C22.8017 11.4668 22.7895 11.4525 22.7938 11.4388C22.7981 11.4252 22.8159 11.4212 22.8517 11.4131L22.8609 11.4109C22.871 11.4087 22.8761 11.4076 22.8802 11.4044C22.8843 11.4013 22.8869 11.3967 22.8921 11.3873L22.8969 11.3788Z" fill="#2B75E2"/>
</g>
<defs>
<clipPath id="clip0_2496_10299">
<rect width="1.16197" height="1.16197" fill="white" transform="translate(22.3555 11.087)"/>
</clipPath>
</defs>
</svg>
