<svg width="24" height="25" viewBox="0 0 24 25" fill="none" xmlns="http://www.w3.org/2000/svg">
<path d="M5.00125 13.7311V16.5411C5.00125 17.2711 5.40125 17.9511 6.04125 18.3011L11.0413 21.0311C11.6413 21.3611 12.3612 21.3611 12.9613 21.0311L17.9612 18.3011C18.6012 17.9511 19.0012 17.2711 19.0012 16.5411V13.7311L12.9613 17.0311C12.3612 17.3611 11.6413 17.3611 11.0413 17.0311L5.00125 13.7311ZM11.0413 4.07105L2.61125 8.67105C1.92125 9.05105 1.92125 10.0511 2.61125 10.4311L11.0413 15.0311C11.6413 15.3611 12.3612 15.3611 12.9613 15.0311L21.0012 10.6411V16.5511C21.0012 17.1011 21.4513 17.5511 22.0012 17.5511C22.5512 17.5511 23.0012 17.1011 23.0012 16.5511V10.1411C23.0012 9.77106 22.8012 9.44105 22.4812 9.26105L12.9613 4.07105C12.6658 3.91348 12.3361 3.83105 12.0013 3.83105C11.6664 3.83105 11.3367 3.91348 11.0413 4.07105Z" fill="#C4C4C4"/>
</svg>
