<svg width="46" height="46" viewBox="0 0 46 46" fill="none" xmlns="http://www.w3.org/2000/svg">
<circle cx="23" cy="23" r="23" fill="#FFE0CB" fill-opacity="0.5"/>
<path d="M34.1236 18.5318V18.6106C34.1236 19.5393 34.1236 20.0047 33.9001 20.3848C33.6765 20.7649 33.2695 20.9905 32.4574 21.443L31.6011 21.9181C32.1907 19.9226 32.3883 17.7781 32.4607 15.9446L32.4715 15.7059L32.4736 15.6498C33.1766 15.8938 33.5718 16.0763 33.818 16.4175C34.1236 16.8419 34.1236 17.4056 34.1236 18.5318ZM12.5273 18.5318V18.6106C12.5273 19.5393 12.5273 20.0047 12.7509 20.3848C12.9744 20.7649 13.3815 20.9905 14.1935 21.443L15.0509 21.9181C14.4602 19.9226 14.2626 17.7781 14.1903 15.9446L14.1795 15.7059L14.1784 15.6498C13.4743 15.8938 13.0791 16.0763 12.8329 16.4175C12.5273 16.8419 12.5273 17.4066 12.5273 18.5318Z" fill="#FF6600"/>
<path fill-rule="evenodd" clip-rule="evenodd" d="M23.3251 11.8779C25.2515 11.8779 26.8378 12.0475 28.0515 12.2526C29.2814 12.46 29.8958 12.5636 30.4098 13.1964C30.9238 13.8292 30.8957 14.5127 30.8417 15.8797C30.656 20.5758 29.6431 26.4403 24.135 26.9586V30.7747H25.6791C25.9287 30.7748 26.1705 30.8614 26.3634 31.0196C26.5563 31.1779 26.6884 31.3981 26.7373 31.6428L26.9425 32.6643H29.804C30.0188 32.6643 30.2248 32.7496 30.3767 32.9015C30.5286 33.0534 30.6139 33.2594 30.6139 33.4742C30.6139 33.689 30.5286 33.895 30.3767 34.0468C30.2248 34.1987 30.0188 34.284 29.804 34.284H16.8463C16.6315 34.284 16.4255 34.1987 16.2736 34.0468C16.1217 33.895 16.0364 33.689 16.0364 33.4742C16.0364 33.2594 16.1217 33.0534 16.2736 32.9015C16.4255 32.7496 16.6315 32.6643 16.8463 32.6643H19.7078L19.9129 31.6428C19.9618 31.3981 20.094 31.1779 20.2869 31.0196C20.4798 30.8614 20.7216 30.7748 20.9712 30.7747H22.5153V26.9586C17.0082 26.4403 15.9954 20.5747 15.8096 15.8797C15.7546 14.5127 15.7276 13.8281 16.2416 13.1964C16.7545 12.5636 17.3689 12.46 18.5988 12.2526C20.1611 11.9966 21.742 11.8713 23.3251 11.8779ZM24.3531 16.4121L24.2473 16.222C23.837 15.4845 23.6318 15.1174 23.3251 15.1174C23.0185 15.1174 22.8133 15.4845 22.403 16.222L22.2972 16.4121C22.1805 16.6216 22.1222 16.7252 22.0315 16.7943C21.9397 16.8634 21.8264 16.8893 21.5996 16.9401L21.3944 16.9876C20.5975 17.1679 20.1991 17.2576 20.1041 17.5621C20.009 17.8677 20.2812 18.1851 20.8243 18.8201L20.9647 18.9842C21.1191 19.1645 21.1968 19.2541 21.2314 19.3664C21.2659 19.4787 21.2541 19.5986 21.2314 19.8394L21.2098 20.0586C21.1277 20.9062 21.0867 21.3306 21.334 21.5185C21.5823 21.7064 21.9559 21.5347 22.7021 21.1913L22.8943 21.1028C23.107 21.0056 23.2128 20.957 23.3251 20.957C23.4374 20.957 23.5433 21.0056 23.756 21.1028L23.9482 21.1913C24.6943 21.5358 25.068 21.7064 25.3163 21.5185C25.5647 21.3306 25.5226 20.9062 25.4405 20.0586L25.4189 19.8394C25.3962 19.5986 25.3843 19.4787 25.4189 19.3664C25.4535 19.2552 25.5312 19.1645 25.6856 18.9842L25.826 18.8201C26.3691 18.1851 26.6412 17.8677 26.5462 17.5621C26.4512 17.2576 26.0527 17.1679 25.2558 16.9876L25.0507 16.9401C24.8239 16.8893 24.7105 16.8645 24.6188 16.7943C24.5281 16.7252 24.4697 16.6216 24.3531 16.4121Z" fill="#FF6600"/>
</svg>
