<svg width="24" height="25" viewBox="0 0 24 25" fill="none" xmlns="http://www.w3.org/2000/svg">
<path d="M12.0132 2.80103C12.7472 2.80903 13.4782 2.89403 14.1952 3.05403C14.3477 3.08808 14.4858 3.16893 14.5902 3.28529C14.6945 3.40164 14.7599 3.54769 14.7772 3.70303L14.9472 5.23003C14.9712 5.44531 15.0454 5.65195 15.1638 5.83333C15.2823 6.01471 15.4416 6.16575 15.6291 6.27431C15.8165 6.38288 16.0268 6.44592 16.2431 6.45837C16.4594 6.47083 16.6755 6.43235 16.8742 6.34603L18.2742 5.73103C18.4164 5.66838 18.5746 5.65147 18.7269 5.68264C18.8792 5.71381 19.018 5.79152 19.1242 5.90503C20.1365 6.98604 20.8904 8.28256 21.3292 9.69703C21.3751 9.84576 21.3735 10.0051 21.3248 10.1529C21.2761 10.3007 21.1825 10.4297 21.0572 10.522L19.8162 11.438C19.6413 11.5662 19.4992 11.7338 19.4011 11.9271C19.3031 12.1205 19.2521 12.3342 19.2521 12.551C19.2521 12.7678 19.3031 12.9816 19.4011 13.1749C19.4992 13.3683 19.6413 13.5359 19.8162 13.664L21.0592 14.579C21.1847 14.6714 21.2784 14.8005 21.3271 14.9486C21.3759 15.0966 21.3773 15.2562 21.3312 15.405C20.8925 16.8193 20.139 18.1158 19.1272 19.197C19.0212 19.3105 18.8826 19.3883 18.7305 19.4196C18.5785 19.451 18.4204 19.4343 18.2782 19.372L16.8722 18.755C16.6738 18.668 16.4577 18.629 16.2414 18.641C16.0251 18.653 15.8146 18.7158 15.6271 18.8243C15.4396 18.9328 15.2802 19.0839 15.1619 19.2654C15.0436 19.4469 14.9697 19.6537 14.9462 19.869L14.7762 21.395C14.7592 21.5485 14.6953 21.6931 14.5931 21.8089C14.4909 21.9247 14.3554 22.0061 14.2052 22.042C12.7567 22.3866 11.2476 22.3866 9.79919 22.042C9.64879 22.0063 9.51312 21.9249 9.41072 21.8091C9.30833 21.6933 9.24423 21.5487 9.22719 21.395L9.05819 19.871C9.03364 19.6563 8.95909 19.4504 8.84053 19.2697C8.72196 19.0891 8.56268 18.9387 8.37549 18.8308C8.18829 18.7229 7.97838 18.6603 7.76264 18.6482C7.54689 18.6361 7.3313 18.6747 7.13319 18.761L5.72719 19.377C5.58485 19.4396 5.42659 19.4563 5.27431 19.425C5.12203 19.3936 4.98326 19.3157 4.87719 19.202C3.86526 18.1196 3.11203 16.8217 2.67419 15.406C2.62809 15.2571 2.62951 15.0976 2.67825 14.9496C2.727 14.8015 2.82065 14.6724 2.94619 14.58L4.18919 13.664C4.36404 13.5359 4.50623 13.3683 4.60424 13.1749C4.70225 12.9816 4.75333 12.7678 4.75333 12.551C4.75333 12.3342 4.70225 12.1205 4.60424 11.9271C4.50623 11.7338 4.36404 11.5662 4.18919 11.438L2.94619 10.524C2.82065 10.4317 2.727 10.3025 2.67825 10.1545C2.62951 10.0064 2.62809 9.8469 2.67419 9.69803C3.11301 8.28356 3.86692 6.98704 4.87919 5.90603C4.98538 5.79252 5.1242 5.71481 5.27648 5.68364C5.42875 5.65247 5.58695 5.66938 5.72919 5.73203L7.12919 6.34703C7.32821 6.4333 7.54469 6.47169 7.76124 6.45911C7.97779 6.44654 8.18837 6.38335 8.37606 6.27462C8.56376 6.16589 8.72334 6.01466 8.84198 5.83307C8.96062 5.65147 9.03502 5.44459 9.05919 5.22903L9.22919 3.70303C9.24635 3.54738 9.3118 3.40101 9.41635 3.28444C9.52091 3.16787 9.65932 3.08695 9.81219 3.05303C10.5352 2.89324 11.2728 2.80879 12.0132 2.80103ZM12.0012 9.55103C11.2055 9.55103 10.4425 9.8671 9.87987 10.4297C9.31726 10.9923 9.00119 11.7554 9.00119 12.551C9.00119 13.3467 9.31726 14.1097 9.87987 14.6723C10.4425 15.235 11.2055 15.551 12.0012 15.551C12.7968 15.551 13.5599 15.235 14.1225 14.6723C14.6851 14.1097 15.0012 13.3467 15.0012 12.551C15.0012 11.7554 14.6851 10.9923 14.1225 10.4297C13.5599 9.8671 12.7968 9.55103 12.0012 9.55103Z" fill="#C4C4C4"/>
</svg>
