<svg width="24" height="25" viewBox="0 0 24 25" fill="none" xmlns="http://www.w3.org/2000/svg">
<path d="M21.0469 13.3479L17.1094 17.2854C17.0046 17.3898 16.8803 17.4725 16.7436 17.5288C16.6069 17.5851 16.4604 17.6139 16.3125 17.6135C16.0143 17.6122 15.7283 17.4945 15.5156 17.2854C15.4107 17.1809 15.3275 17.0567 15.2707 16.9199C15.214 16.7832 15.1847 16.6366 15.1847 16.4885C15.1847 16.3405 15.214 16.1939 15.2707 16.0571C15.3275 15.9204 15.4107 15.7962 15.5156 15.6917L17.5312 13.676H9.75C9.45163 13.676 9.16548 13.5575 8.9545 13.3465C8.74353 13.1355 8.625 12.8494 8.625 12.551C8.625 12.2527 8.74353 11.9665 8.9545 11.7555C9.16548 11.5446 9.45163 11.426 9.75 11.426H17.5312L15.5156 9.4104C15.3043 9.19906 15.1855 8.91241 15.1855 8.61353C15.1855 8.31464 15.3043 8.02799 15.5156 7.81665C15.727 7.60531 16.0136 7.48657 16.3125 7.48657C16.6114 7.48657 16.898 7.60531 17.1094 7.81665L21.0469 11.7542C21.1518 11.8587 21.235 11.9829 21.2918 12.1196C21.3485 12.2564 21.3778 12.403 21.3778 12.551C21.3778 12.6991 21.3485 12.8457 21.2918 12.9824C21.235 13.1192 21.1518 13.2434 21.0469 13.3479ZM9.75 19.676H4.875V5.42603H9.75C10.0484 5.42603 10.3345 5.3075 10.5455 5.09652C10.7565 4.88554 10.875 4.59939 10.875 4.30103C10.875 4.00266 10.7565 3.71651 10.5455 3.50553C10.3345 3.29455 10.0484 3.17603 9.75 3.17603H4.5C4.00348 3.17849 3.528 3.37682 3.1769 3.72792C2.8258 4.07902 2.62746 4.5545 2.625 5.05103V20.051C2.62746 20.5475 2.8258 21.023 3.1769 21.3741C3.528 21.7252 4.00348 21.9236 4.5 21.926H9.75C10.0484 21.926 10.3345 21.8075 10.5455 21.5965C10.7565 21.3855 10.875 21.0994 10.875 20.801C10.875 20.5027 10.7565 20.2165 10.5455 20.0055C10.3345 19.7946 10.0484 19.676 9.75 19.676Z" fill="#C4C4C4"/>
</svg>
